<?xml version="1.0" encoding="UTF-8" standalone="no"?>
<!DOCTYPE svg PUBLIC "-//W3C//DTD SVG 1.1//EN"
 "http://www.w3.org/Graphics/SVG/1.1/DTD/svg11.dtd">
<!-- Generated by graphviz version 2.47.3 (20210619.1520)
 -->
<!-- Title: dependencies Pages: 1 -->
<svg width="316pt" height="174pt"
 viewBox="0.00 0.00 316.00 173.80" xmlns="http://www.w3.org/2000/svg" xmlns:xlink="http://www.w3.org/1999/xlink">
<g id="graph0" class="graph" transform="scale(1 1) rotate(0) translate(4 169.8)">
<title>dependencies</title>
<polygon fill="white" stroke="transparent" points="-4,4 -4,-169.8 312,-169.8 312,4 -4,4"/>
<text text-anchor="middle" x="154" y="-8.2" font-family="sans-serif" font-size="14.00">dependencies</text>
<g id="clust1" class="cluster">
<title>cluster_AppModule</title>
<polygon fill="none" stroke="black" stroke-dasharray="1,5" points="8,-32.8 8,-157.8 300,-157.8 300,-32.8 8,-32.8"/>
</g>
<g id="clust3" class="cluster">
<title>cluster_AppModule_imports</title>
<polygon fill="none" stroke="black" points="154,-40.8 154,-92.8 292,-92.8 292,-40.8 154,-40.8"/>
</g>
<g id="clust6" class="cluster">
<title>cluster_AppModule_providers</title>
<polygon fill="none" stroke="black" points="16,-40.8 16,-92.8 146,-92.8 146,-40.8 16,-40.8"/>
</g>
<!-- JWTTokenModule -->
<g id="node1" class="node">
<title>JWTTokenModule</title>
<polygon fill="#8dd3c7" stroke="black" points="284.03,-84.8 281.03,-88.8 260.03,-88.8 257.03,-84.8 161.97,-84.8 161.97,-48.8 284.03,-48.8 284.03,-84.8"/>
<text text-anchor="middle" x="223" y="-62.6" font-family="Times,serif" font-size="14.00">JWTTokenModule</text>
</g>
<!-- AppModule -->
<g id="node2" class="node">
<title>AppModule</title>
<polygon fill="#8dd3c7" stroke="black" points="193.66,-149.8 190.66,-153.8 169.66,-153.8 166.66,-149.8 110.34,-149.8 110.34,-113.8 193.66,-113.8 193.66,-149.8"/>
<text text-anchor="middle" x="152" y="-127.6" font-family="Times,serif" font-size="14.00">AppModule</text>
</g>
<!-- JWTTokenModule&#45;&gt;AppModule -->
<g id="edge1" class="edge">
<title>JWTTokenModule&#45;&gt;AppModule</title>
<path fill="none" stroke="black" d="M177.78,-84.91C177.78,-84.91 177.78,-103.79 177.78,-103.79"/>
<polygon fill="black" stroke="black" points="174.28,-103.79 177.78,-113.79 181.28,-103.79 174.28,-103.79"/>
</g>
<!-- AppService -->
<g id="node3" class="node">
<title>AppService</title>
<ellipse fill="#fdb462" stroke="black" cx="81" cy="-66.8" rx="56.74" ry="18"/>
<text text-anchor="middle" x="81" y="-62.6" font-family="Times,serif" font-size="14.00">AppService</text>
</g>
<!-- AppService&#45;&gt;AppModule -->
<g id="edge2" class="edge">
<title>AppService&#45;&gt;AppModule</title>
<path fill="none" stroke="black" d="M123.9,-78.72C123.9,-78.72 123.9,-103.57 123.9,-103.57"/>
<polygon fill="black" stroke="black" points="120.4,-103.57 123.9,-113.57 127.4,-103.57 120.4,-103.57"/>
</g>
</g>
</svg>
