<?xml version="1.0" encoding="UTF-8" standalone="no"?>
<!DOCTYPE svg PUBLIC "-//W3C//DTD SVG 1.1//EN"
 "http://www.w3.org/Graphics/SVG/1.1/DTD/svg11.dtd">
<!-- Generated by graphviz version 2.47.3 (20210619.1520)
 -->
<!-- Title: dependencies Pages: 1 -->
<svg width="338pt" height="250pt"
 viewBox="0.00 0.00 338.00 249.80" xmlns="http://www.w3.org/2000/svg" xmlns:xlink="http://www.w3.org/1999/xlink">
<g id="graph0" class="graph" transform="scale(1 1) rotate(0) translate(4 245.8)">
<title>dependencies</title>
<polygon fill="white" stroke="transparent" points="-4,4 -4,-245.8 334,-245.8 334,4 -4,4"/>
<text text-anchor="middle" x="165" y="-8.2" font-family="sans-serif" font-size="14.00">dependencies</text>
<g id="clust1" class="cluster">
<title>cluster_AppModule</title>
<polygon fill="none" stroke="black" stroke-dasharray="1,5" points="8,-108.8 8,-233.8 300,-233.8 300,-108.8 8,-108.8"/>
</g>
<g id="clust3" class="cluster">
<title>cluster_AppModule_imports</title>
<polygon fill="none" stroke="black" points="154,-116.8 154,-168.8 292,-168.8 292,-116.8 154,-116.8"/>
</g>
<g id="clust6" class="cluster">
<title>cluster_AppModule_providers</title>
<polygon fill="none" stroke="black" points="16,-116.8 16,-168.8 146,-168.8 146,-116.8 16,-116.8"/>
</g>
<g id="clust7" class="cluster">
<title>cluster_JWTTokenModule</title>
<polygon fill="none" stroke="black" stroke-dasharray="1,5" points="124,-32.8 124,-100.8 322,-100.8 322,-32.8 124,-32.8"/>
</g>
<g id="clust12" class="cluster">
<title>cluster_JWTTokenModule_providers</title>
<polygon fill="none" stroke="black" points="132,-40.8 132,-92.8 314,-92.8 314,-40.8 132,-40.8"/>
</g>
<!-- JWTTokenModule -->
<g id="node1" class="node">
<title>JWTTokenModule</title>
<polygon fill="#8dd3c7" stroke="black" points="284.03,-160.8 281.03,-164.8 260.03,-164.8 257.03,-160.8 161.97,-160.8 161.97,-124.8 284.03,-124.8 284.03,-160.8"/>
<text text-anchor="middle" x="223" y="-138.6" font-family="Times,serif" font-size="14.00">JWTTokenModule</text>
</g>
<!-- AppModule -->
<g id="node2" class="node">
<title>AppModule</title>
<polygon fill="#8dd3c7" stroke="black" points="193.66,-225.8 190.66,-229.8 169.66,-229.8 166.66,-225.8 110.34,-225.8 110.34,-189.8 193.66,-189.8 193.66,-225.8"/>
<text text-anchor="middle" x="152" y="-203.6" font-family="Times,serif" font-size="14.00">AppModule</text>
</g>
<!-- JWTTokenModule&#45;&gt;AppModule -->
<g id="edge1" class="edge">
<title>JWTTokenModule&#45;&gt;AppModule</title>
<path fill="none" stroke="black" d="M177.78,-160.91C177.78,-160.91 177.78,-179.79 177.78,-179.79"/>
<polygon fill="black" stroke="black" points="174.28,-179.79 177.78,-189.79 181.28,-179.79 174.28,-179.79"/>
</g>
<!-- AppService -->
<g id="node3" class="node">
<title>AppService</title>
<ellipse fill="#fdb462" stroke="black" cx="81" cy="-142.8" rx="56.74" ry="18"/>
<text text-anchor="middle" x="81" y="-138.6" font-family="Times,serif" font-size="14.00">AppService</text>
</g>
<!-- AppService&#45;&gt;AppModule -->
<g id="edge2" class="edge">
<title>AppService&#45;&gt;AppModule</title>
<path fill="none" stroke="black" d="M123.9,-154.72C123.9,-154.72 123.9,-179.57 123.9,-179.57"/>
<polygon fill="black" stroke="black" points="120.4,-179.57 123.9,-189.57 127.4,-179.57 120.4,-179.57"/>
</g>
<!-- JWTTokenService -->
<g id="node4" class="node">
<title>JWTTokenService</title>
<ellipse fill="#fdb462" stroke="black" cx="223" cy="-66.8" rx="83.37" ry="18"/>
<text text-anchor="middle" x="223" y="-62.6" font-family="Times,serif" font-size="14.00">JWTTokenService</text>
</g>
<!-- JWTTokenService&#45;&gt;JWTTokenModule -->
<g id="edge3" class="edge">
<title>JWTTokenService&#45;&gt;JWTTokenModule</title>
<path fill="none" stroke="black" d="M223,-84.81C223,-84.81 223,-114.65 223,-114.65"/>
<polygon fill="black" stroke="black" points="219.5,-114.65 223,-124.65 226.5,-114.65 219.5,-114.65"/>
</g>
</g>
</svg>
